<svg version="1.1" xmlns="http://www.w3.org/2000/svg" xmlns:xlink="http://www.w3.org/1999/xlink" x="0px" y="0px"
	 viewBox="0 0 355 134" style="enable-background:new 0 0 355 134;" xml:space="preserve">
<path fill="#3E7850" d="M0,67v67h28.5H57v-20.5V93h8.3h8.4l12.8,20.5L99.4,134h80.8H261V93V52h18.5H298v41v41h28.5H355V67V0H227.1H99.2L86.7,20.2
	L74.2,40.5l-8.6,0.3L57,41.1V20.5V0H28.5H0V67z M44,33v21h18.3h18.4L91,37.2c5.7-9.2,11.5-18.6,12.9-20.9l2.6-4.3h117.8H342v55v55
	h-15.5H311l-0.2-41.3l-0.3-41.2l-30.7-0.3L249,39v41.5V122h-71.2l-71.3-0.1l-12.7-20.2L81.2,81.5l-18.6-0.3L44,81v20.5V122H28.5H13
	V67V12h15.5H44V33z"/>
<path fill="#3E7850" d="M21,67v46h7.5H36V92.5V72l24.7,0.2l24.8,0.3l12.6,20l12.6,20l7.6,0.3l7.7,0.3l-14.6-22.8c-8.1-12.5-14.8-23.3-15.1-24
	c-0.3-0.6,5.6-10.9,13.1-22.8S123,21.7,123,21.4c0-0.3-2.8-0.4-6.2-0.2l-6.1,0.3l-5.4,8.5c-2.9,4.7-8.5,13.8-12.4,20.2L85.8,62H60.9
	H36V41.5V21h-7.5H21V67z"/>
<path fill="#3E7850" d="M132,48v27l46.8,0.2l46.7,0.3l0.3,13.7l0.3,13.8H179h-47v5v5h54h54l0.2-40.8l0.3-40.7l39.3-0.3L319,31v41v41h7.5h7.5V67V21
	H233H132V48z M226,48v17h-39.5H147V48V31h39.5H226V48z"/>
<path fill="#3E7850" d="M155.7,39.7c-0.4,0.3-0.7,4.4-0.7,9V57h31h31v-9v-9h-30.3C170,39,156,39.3,155.7,39.7z"/>
<path fill="#3E7850" d="M114.7,50.9c-4.9,7.8-8.7,14.8-8.4,15.5c0.3,0.7,4.5,7.5,9.3,15l8.8,13.6h46.3H217v-5.5V84h-46.5H124l-0.2-23.7l-0.3-23.6
	L114.7,50.9z"/>
</svg>
